<svg width="88" height="31" viewBox="0 0 88 31" fill="none" xmlns="http://www.w3.org/2000/svg">
<g clip-path="url(#clip0_810_2195)">
<g filter="url(#filter0_d_810_2195)">
<path d="M2.58188 15.1294L12.4741 1.9397M2.58188 15.1294L12.4741 28.319M2.58188 15.1294C11.7821 17.6576 13.5358 17.6229 22.3664 15.1294M12.4741 1.9397V28.319M12.4741 1.9397L17.4202 8.53452M22.3664 15.1294L12.4741 28.319M22.3664 15.1294L19.8933 11.8319" stroke="url(#paint0_linear_810_2195)" stroke-width="1.55172" stroke-linecap="round" stroke-linejoin="round"/>
</g>
</g>
<path d="M43.9041 6.09091V25H40.8572L31.9474 12.12H31.7905V25H28.3651V6.09091H31.4304L40.331 18.9801H40.4972V6.09091H43.9041ZM47.4888 25V10.8182H50.8311V25H47.4888ZM49.1692 8.8054C48.6399 8.8054 48.1844 8.62997 47.8027 8.27912C47.4211 7.92211 47.2303 7.49432 47.2303 6.99574C47.2303 6.491 47.4211 6.06321 47.8027 5.71236C48.1844 5.35535 48.6399 5.17685 49.1692 5.17685C49.7047 5.17685 50.1602 5.35535 50.5357 5.71236C50.9173 6.06321 51.1081 6.491 51.1081 6.99574C51.1081 7.49432 50.9173 7.92211 50.5357 8.27912C50.1602 8.62997 49.7047 8.8054 49.1692 8.8054ZM61.4513 10.8182V13.4034H53.0678V10.8182H61.4513ZM55.1637 25V9.4794C55.1637 8.52533 55.3607 7.7313 55.7546 7.0973C56.1547 6.4633 56.6902 5.98935 57.3612 5.67543C58.0321 5.3615 58.7769 5.20454 59.5955 5.20454C60.1741 5.20454 60.6881 5.25071 61.1374 5.34304C61.5868 5.43537 61.9192 5.51847 62.1346 5.59233L61.4698 8.17756C61.3282 8.13447 61.1497 8.09138 60.9343 8.04829C60.7189 7.99905 60.4788 7.97443 60.2141 7.97443C59.5924 7.97443 59.1523 8.12524 58.8938 8.42685C58.6415 8.7223 58.5153 9.14702 58.5153 9.70099V25H55.1637ZM71.1506 10.8182V13.4034H62.9979V10.8182H71.1506ZM65.0107 7.42045H68.353V20.7344C68.353 21.1837 68.4207 21.5284 68.5561 21.7685C68.6977 22.0024 68.8823 22.1624 69.1101 22.2486C69.3378 22.3348 69.5902 22.3778 69.8672 22.3778C70.0765 22.3778 70.2673 22.3625 70.4396 22.3317C70.6181 22.3009 70.7536 22.2732 70.8459 22.2486L71.4091 24.8615C71.2306 24.9231 70.9751 24.9908 70.6428 25.0646C70.3165 25.1385 69.9164 25.1816 69.4425 25.1939C68.6054 25.2185 67.8513 25.0923 67.1804 24.8153C66.5095 24.5322 65.977 24.0952 65.5831 23.5043C65.1953 22.9134 65.0045 22.1747 65.0107 21.2884V7.42045ZM76.0233 30.3182C75.5678 30.3182 75.1461 30.2813 74.7583 30.2074C74.3767 30.1397 74.072 30.0597 73.8443 29.9673L74.6199 27.3636C75.1061 27.5052 75.5401 27.5729 75.9217 27.5668C76.3033 27.5606 76.6388 27.4406 76.9281 27.2067C77.2235 26.9789 77.4728 26.5973 77.676 26.0618L77.9622 25.2955L72.8194 10.8182H76.3649L79.6333 21.5284H79.7811L83.0588 10.8182H86.6135L80.9352 26.7173C80.6705 27.4683 80.3197 28.1115 79.8826 28.647C79.4456 29.1887 78.9101 29.6011 78.2761 29.8842C77.6483 30.1735 76.8973 30.3182 76.0233 30.3182Z" fill="white"/>
<defs>
<filter id="filter0_d_810_2195" x="-0.780177" y="-1.42239" width="26.5086" height="33.1034" filterUnits="userSpaceOnUse" color-interpolation-filters="sRGB">
<feFlood flood-opacity="0" result="BackgroundImageFix"/>
<feColorMatrix in="SourceAlpha" type="matrix" values="0 0 0 0 0 0 0 0 0 0 0 0 0 0 0 0 0 0 127 0" result="hardAlpha"/>
<feOffset/>
<feGaussianBlur stdDeviation="1.2931"/>
<feColorMatrix type="matrix" values="0 0 0 0 0.875 0 0 0 0 0.153125 0 0 0 0 0.716187 0 0 0 0.5 0"/>
<feBlend mode="normal" in2="BackgroundImageFix" result="effect1_dropShadow_810_2195"/>
<feBlend mode="normal" in="SourceGraphic" in2="effect1_dropShadow_810_2195" result="shape"/>
</filter>
<linearGradient id="paint0_linear_810_2195" x1="7.60777" y1="8.44164" x2="20.3203" y2="20.7249" gradientUnits="userSpaceOnUse">
<stop stop-color="#DF27B7"/>
<stop offset="1" stop-color="#CA33FF"/>
</linearGradient>
<clipPath id="clip0_810_2195">
<rect width="24.0517" height="30" fill="white" transform="translate(0.448273)"/>
</clipPath>
</defs>
</svg>
