<svg xmlns="http://www.w3.org/2000/svg" version="1.1" xmlns:xlink="http://www.w3.org/1999/xlink" xmlns:svgjs="http://svgjs.dev/svgjs" viewBox="0 0 800 800" opacity="0.46"><defs><linearGradient gradientTransform="rotate(270)" x1="50%" y1="0%" x2="50%" y2="100%" id="sssquiggly-grad"><stop stop-color="hsl(206, 75%, 49%)" stop-opacity="1" offset="0%"></stop><stop stop-color="hsl(331, 90%, 56%)" stop-opacity="1" offset="100%"></stop></linearGradient></defs><g stroke-width="1.5" stroke="url(#sssquiggly-grad)" fill="none" stroke-linecap="round" transform="matrix(1,0,0,1,-5,-2618.6077728271484)"><path d="M10,10C31.726190476190478,17.291666666666664,68.75,61.04166666666667,114.28571428571429,45C159.82142857142858,28.958333333333332,180.95238095238096,-65.125,228.57142857142858,-67C276.1904761904762,-68.875,295.2380952380953,25.791666666666668,342.8571428571429,36C390.4761904761905,46.20833333333333,409.5238095238095,-28.833333333333332,457.14285714285717,-18C504.7619047619048,-7.166666666666668,523.8095238095239,93.83333333333333,571.4285714285714,88C619.047619047619,82.16666666666667,638.0952380952382,-35.79166666666667,685.7142857142858,-46C733.3333333333334,-56.20833333333333,776.1904761904761,21.291666666666668,800,39"></path><path d="M10,10C31.726190476190478,17.291666666666664,68.75,61.04166666666667,114.28571428571429,45C159.82142857142858,28.958333333333332,180.95238095238096,-65.125,228.57142857142858,-67C276.1904761904762,-68.875,295.2380952380953,25.791666666666668,342.8571428571429,36C390.4761904761905,46.20833333333333,409.5238095238095,-28.833333333333332,457.14285714285717,-18C504.7619047619048,-7.166666666666668,523.8095238095239,93.83333333333333,571.4285714285714,88C619.047619047619,82.16666666666667,638.0952380952382,-35.79166666666667,685.7142857142858,-46C733.3333333333334,-56.20833333333333,776.1904761904761,21.291666666666668,800,39" transform="matrix(1,0,0,1,0,6016)"></path><path d="M10,10C31.726190476190478,17.291666666666664,68.75,61.04166666666667,114.28571428571429,45C159.82142857142858,28.958333333333332,180.95238095238096,-65.125,228.57142857142858,-67C276.1904761904762,-68.875,295.2380952380953,25.791666666666668,342.8571428571429,36C390.4761904761905,46.20833333333333,409.5238095238095,-28.833333333333332,457.14285714285717,-18C504.7619047619048,-7.166666666666668,523.8095238095239,93.83333333333333,571.4285714285714,88C619.047619047619,82.16666666666667,638.0952380952382,-35.79166666666667,685.7142857142858,-46C733.3333333333334,-56.20833333333333,776.1904761904761,21.291666666666668,800,39" transform="matrix(1,0,0,1,0,5922)"></path><path d="M10,10C31.726190476190478,17.291666666666664,68.75,61.04166666666667,114.28571428571429,45C159.82142857142858,28.958333333333332,180.95238095238096,-65.125,228.57142857142858,-67C276.1904761904762,-68.875,295.2380952380953,25.791666666666668,342.8571428571429,36C390.4761904761905,46.20833333333333,409.5238095238095,-28.833333333333332,457.14285714285717,-18C504.7619047619048,-7.166666666666668,523.8095238095239,93.83333333333333,571.4285714285714,88C619.047619047619,82.16666666666667,638.0952380952382,-35.79166666666667,685.7142857142858,-46C733.3333333333334,-56.20833333333333,776.1904761904761,21.291666666666668,800,39" transform="matrix(1,0,0,1,0,5828)"></path><path d="M10,10C31.726190476190478,17.291666666666664,68.75,61.04166666666667,114.28571428571429,45C159.82142857142858,28.958333333333332,180.95238095238096,-65.125,228.57142857142858,-67C276.1904761904762,-68.875,295.2380952380953,25.791666666666668,342.8571428571429,36C390.4761904761905,46.20833333333333,409.5238095238095,-28.833333333333332,457.14285714285717,-18C504.7619047619048,-7.166666666666668,523.8095238095239,93.83333333333333,571.4285714285714,88C619.047619047619,82.16666666666667,638.0952380952382,-35.79166666666667,685.7142857142858,-46C733.3333333333334,-56.20833333333333,776.1904761904761,21.291666666666668,800,39" transform="matrix(1,0,0,1,0,5734)"></path><path d="M10,10C31.726190476190478,17.291666666666664,68.75,61.04166666666667,114.28571428571429,45C159.82142857142858,28.958333333333332,180.95238095238096,-65.125,228.57142857142858,-67C276.1904761904762,-68.875,295.2380952380953,25.791666666666668,342.8571428571429,36C390.4761904761905,46.20833333333333,409.5238095238095,-28.833333333333332,457.14285714285717,-18C504.7619047619048,-7.166666666666668,523.8095238095239,93.83333333333333,571.4285714285714,88C619.047619047619,82.16666666666667,638.0952380952382,-35.79166666666667,685.7142857142858,-46C733.3333333333334,-56.20833333333333,776.1904761904761,21.291666666666668,800,39" transform="matrix(1,0,0,1,0,5640)"></path><path d="M10,10C31.726190476190478,17.291666666666664,68.75,61.04166666666667,114.28571428571429,45C159.82142857142858,28.958333333333332,180.95238095238096,-65.125,228.57142857142858,-67C276.1904761904762,-68.875,295.2380952380953,25.791666666666668,342.8571428571429,36C390.4761904761905,46.20833333333333,409.5238095238095,-28.833333333333332,457.14285714285717,-18C504.7619047619048,-7.166666666666668,523.8095238095239,93.83333333333333,571.4285714285714,88C619.047619047619,82.16666666666667,638.0952380952382,-35.79166666666667,685.7142857142858,-46C733.3333333333334,-56.20833333333333,776.1904761904761,21.291666666666668,800,39" transform="matrix(1,0,0,1,0,5546)"></path><path d="M10,10C31.726190476190478,17.291666666666664,68.75,61.04166666666667,114.28571428571429,45C159.82142857142858,28.958333333333332,180.95238095238096,-65.125,228.57142857142858,-67C276.1904761904762,-68.875,295.2380952380953,25.791666666666668,342.8571428571429,36C390.4761904761905,46.20833333333333,409.5238095238095,-28.833333333333332,457.14285714285717,-18C504.7619047619048,-7.166666666666668,523.8095238095239,93.83333333333333,571.4285714285714,88C619.047619047619,82.16666666666667,638.0952380952382,-35.79166666666667,685.7142857142858,-46C733.3333333333334,-56.20833333333333,776.1904761904761,21.291666666666668,800,39" transform="matrix(1,0,0,1,0,5452)"></path><path d="M10,10C31.726190476190478,17.291666666666664,68.75,61.04166666666667,114.28571428571429,45C159.82142857142858,28.958333333333332,180.95238095238096,-65.125,228.57142857142858,-67C276.1904761904762,-68.875,295.2380952380953,25.791666666666668,342.8571428571429,36C390.4761904761905,46.20833333333333,409.5238095238095,-28.833333333333332,457.14285714285717,-18C504.7619047619048,-7.166666666666668,523.8095238095239,93.83333333333333,571.4285714285714,88C619.047619047619,82.16666666666667,638.0952380952382,-35.79166666666667,685.7142857142858,-46C733.3333333333334,-56.20833333333333,776.1904761904761,21.291666666666668,800,39" transform="matrix(1,0,0,1,0,5358)"></path><path d="M10,10C31.726190476190478,17.291666666666664,68.75,61.04166666666667,114.28571428571429,45C159.82142857142858,28.958333333333332,180.95238095238096,-65.125,228.57142857142858,-67C276.1904761904762,-68.875,295.2380952380953,25.791666666666668,342.8571428571429,36C390.4761904761905,46.20833333333333,409.5238095238095,-28.833333333333332,457.14285714285717,-18C504.7619047619048,-7.166666666666668,523.8095238095239,93.83333333333333,571.4285714285714,88C619.047619047619,82.16666666666667,638.0952380952382,-35.79166666666667,685.7142857142858,-46C733.3333333333334,-56.20833333333333,776.1904761904761,21.291666666666668,800,39" transform="matrix(1,0,0,1,0,5264)"></path><path d="M10,10C31.726190476190478,17.291666666666664,68.75,61.04166666666667,114.28571428571429,45C159.82142857142858,28.958333333333332,180.95238095238096,-65.125,228.57142857142858,-67C276.1904761904762,-68.875,295.2380952380953,25.791666666666668,342.8571428571429,36C390.4761904761905,46.20833333333333,409.5238095238095,-28.833333333333332,457.14285714285717,-18C504.7619047619048,-7.166666666666668,523.8095238095239,93.83333333333333,571.4285714285714,88C619.047619047619,82.16666666666667,638.0952380952382,-35.79166666666667,685.7142857142858,-46C733.3333333333334,-56.20833333333333,776.1904761904761,21.291666666666668,800,39" transform="matrix(1,0,0,1,0,5170)"></path><path d="M10,10C31.726190476190478,17.291666666666664,68.75,61.04166666666667,114.28571428571429,45C159.82142857142858,28.958333333333332,180.95238095238096,-65.125,228.57142857142858,-67C276.1904761904762,-68.875,295.2380952380953,25.791666666666668,342.8571428571429,36C390.4761904761905,46.20833333333333,409.5238095238095,-28.833333333333332,457.14285714285717,-18C504.7619047619048,-7.166666666666668,523.8095238095239,93.83333333333333,571.4285714285714,88C619.047619047619,82.16666666666667,638.0952380952382,-35.79166666666667,685.7142857142858,-46C733.3333333333334,-56.20833333333333,776.1904761904761,21.291666666666668,800,39" transform="matrix(1,0,0,1,0,5076)"></path><path d="M10,10C31.726190476190478,17.291666666666664,68.75,61.04166666666667,114.28571428571429,45C159.82142857142858,28.958333333333332,180.95238095238096,-65.125,228.57142857142858,-67C276.1904761904762,-68.875,295.2380952380953,25.791666666666668,342.8571428571429,36C390.4761904761905,46.20833333333333,409.5238095238095,-28.833333333333332,457.14285714285717,-18C504.7619047619048,-7.166666666666668,523.8095238095239,93.83333333333333,571.4285714285714,88C619.047619047619,82.16666666666667,638.0952380952382,-35.79166666666667,685.7142857142858,-46C733.3333333333334,-56.20833333333333,776.1904761904761,21.291666666666668,800,39" transform="matrix(1,0,0,1,0,4982)"></path><path d="M10,10C31.726190476190478,17.291666666666664,68.75,61.04166666666667,114.28571428571429,45C159.82142857142858,28.958333333333332,180.95238095238096,-65.125,228.57142857142858,-67C276.1904761904762,-68.875,295.2380952380953,25.791666666666668,342.8571428571429,36C390.4761904761905,46.20833333333333,409.5238095238095,-28.833333333333332,457.14285714285717,-18C504.7619047619048,-7.166666666666668,523.8095238095239,93.83333333333333,571.4285714285714,88C619.047619047619,82.16666666666667,638.0952380952382,-35.79166666666667,685.7142857142858,-46C733.3333333333334,-56.20833333333333,776.1904761904761,21.291666666666668,800,39" transform="matrix(1,0,0,1,0,4888)"></path><path d="M10,10C31.726190476190478,17.291666666666664,68.75,61.04166666666667,114.28571428571429,45C159.82142857142858,28.958333333333332,180.95238095238096,-65.125,228.57142857142858,-67C276.1904761904762,-68.875,295.2380952380953,25.791666666666668,342.8571428571429,36C390.4761904761905,46.20833333333333,409.5238095238095,-28.833333333333332,457.14285714285717,-18C504.7619047619048,-7.166666666666668,523.8095238095239,93.83333333333333,571.4285714285714,88C619.047619047619,82.16666666666667,638.0952380952382,-35.79166666666667,685.7142857142858,-46C733.3333333333334,-56.20833333333333,776.1904761904761,21.291666666666668,800,39" transform="matrix(1,0,0,1,0,4794)"></path><path d="M10,10C31.726190476190478,17.291666666666664,68.75,61.04166666666667,114.28571428571429,45C159.82142857142858,28.958333333333332,180.95238095238096,-65.125,228.57142857142858,-67C276.1904761904762,-68.875,295.2380952380953,25.791666666666668,342.8571428571429,36C390.4761904761905,46.20833333333333,409.5238095238095,-28.833333333333332,457.14285714285717,-18C504.7619047619048,-7.166666666666668,523.8095238095239,93.83333333333333,571.4285714285714,88C619.047619047619,82.16666666666667,638.0952380952382,-35.79166666666667,685.7142857142858,-46C733.3333333333334,-56.20833333333333,776.1904761904761,21.291666666666668,800,39" transform="matrix(1,0,0,1,0,4700)"></path><path d="M10,10C31.726190476190478,17.291666666666664,68.75,61.04166666666667,114.28571428571429,45C159.82142857142858,28.958333333333332,180.95238095238096,-65.125,228.57142857142858,-67C276.1904761904762,-68.875,295.2380952380953,25.791666666666668,342.8571428571429,36C390.4761904761905,46.20833333333333,409.5238095238095,-28.833333333333332,457.14285714285717,-18C504.7619047619048,-7.166666666666668,523.8095238095239,93.83333333333333,571.4285714285714,88C619.047619047619,82.16666666666667,638.0952380952382,-35.79166666666667,685.7142857142858,-46C733.3333333333334,-56.20833333333333,776.1904761904761,21.291666666666668,800,39" transform="matrix(1,0,0,1,0,4606)"></path><path d="M10,10C31.726190476190478,17.291666666666664,68.75,61.04166666666667,114.28571428571429,45C159.82142857142858,28.958333333333332,180.95238095238096,-65.125,228.57142857142858,-67C276.1904761904762,-68.875,295.2380952380953,25.791666666666668,342.8571428571429,36C390.4761904761905,46.20833333333333,409.5238095238095,-28.833333333333332,457.14285714285717,-18C504.7619047619048,-7.166666666666668,523.8095238095239,93.83333333333333,571.4285714285714,88C619.047619047619,82.16666666666667,638.0952380952382,-35.79166666666667,685.7142857142858,-46C733.3333333333334,-56.20833333333333,776.1904761904761,21.291666666666668,800,39" transform="matrix(1,0,0,1,0,4512)"></path><path d="M10,10C31.726190476190478,17.291666666666664,68.75,61.04166666666667,114.28571428571429,45C159.82142857142858,28.958333333333332,180.95238095238096,-65.125,228.57142857142858,-67C276.1904761904762,-68.875,295.2380952380953,25.791666666666668,342.8571428571429,36C390.4761904761905,46.20833333333333,409.5238095238095,-28.833333333333332,457.14285714285717,-18C504.7619047619048,-7.166666666666668,523.8095238095239,93.83333333333333,571.4285714285714,88C619.047619047619,82.16666666666667,638.0952380952382,-35.79166666666667,685.7142857142858,-46C733.3333333333334,-56.20833333333333,776.1904761904761,21.291666666666668,800,39" transform="matrix(1,0,0,1,0,4418)"></path><path d="M10,10C31.726190476190478,17.291666666666664,68.75,61.04166666666667,114.28571428571429,45C159.82142857142858,28.958333333333332,180.95238095238096,-65.125,228.57142857142858,-67C276.1904761904762,-68.875,295.2380952380953,25.791666666666668,342.8571428571429,36C390.4761904761905,46.20833333333333,409.5238095238095,-28.833333333333332,457.14285714285717,-18C504.7619047619048,-7.166666666666668,523.8095238095239,93.83333333333333,571.4285714285714,88C619.047619047619,82.16666666666667,638.0952380952382,-35.79166666666667,685.7142857142858,-46C733.3333333333334,-56.20833333333333,776.1904761904761,21.291666666666668,800,39" transform="matrix(1,0,0,1,0,4324)"></path><path d="M10,10C31.726190476190478,17.291666666666664,68.75,61.04166666666667,114.28571428571429,45C159.82142857142858,28.958333333333332,180.95238095238096,-65.125,228.57142857142858,-67C276.1904761904762,-68.875,295.2380952380953,25.791666666666668,342.8571428571429,36C390.4761904761905,46.20833333333333,409.5238095238095,-28.833333333333332,457.14285714285717,-18C504.7619047619048,-7.166666666666668,523.8095238095239,93.83333333333333,571.4285714285714,88C619.047619047619,82.16666666666667,638.0952380952382,-35.79166666666667,685.7142857142858,-46C733.3333333333334,-56.20833333333333,776.1904761904761,21.291666666666668,800,39" transform="matrix(1,0,0,1,0,4230)"></path><path d="M10,10C31.726190476190478,17.291666666666664,68.75,61.04166666666667,114.28571428571429,45C159.82142857142858,28.958333333333332,180.95238095238096,-65.125,228.57142857142858,-67C276.1904761904762,-68.875,295.2380952380953,25.791666666666668,342.8571428571429,36C390.4761904761905,46.20833333333333,409.5238095238095,-28.833333333333332,457.14285714285717,-18C504.7619047619048,-7.166666666666668,523.8095238095239,93.83333333333333,571.4285714285714,88C619.047619047619,82.16666666666667,638.0952380952382,-35.79166666666667,685.7142857142858,-46C733.3333333333334,-56.20833333333333,776.1904761904761,21.291666666666668,800,39" transform="matrix(1,0,0,1,0,4136)"></path><path d="M10,10C31.726190476190478,17.291666666666664,68.75,61.04166666666667,114.28571428571429,45C159.82142857142858,28.958333333333332,180.95238095238096,-65.125,228.57142857142858,-67C276.1904761904762,-68.875,295.2380952380953,25.791666666666668,342.8571428571429,36C390.4761904761905,46.20833333333333,409.5238095238095,-28.833333333333332,457.14285714285717,-18C504.7619047619048,-7.166666666666668,523.8095238095239,93.83333333333333,571.4285714285714,88C619.047619047619,82.16666666666667,638.0952380952382,-35.79166666666667,685.7142857142858,-46C733.3333333333334,-56.20833333333333,776.1904761904761,21.291666666666668,800,39" transform="matrix(1,0,0,1,0,4042)"></path><path d="M10,10C31.726190476190478,17.291666666666664,68.75,61.04166666666667,114.28571428571429,45C159.82142857142858,28.958333333333332,180.95238095238096,-65.125,228.57142857142858,-67C276.1904761904762,-68.875,295.2380952380953,25.791666666666668,342.8571428571429,36C390.4761904761905,46.20833333333333,409.5238095238095,-28.833333333333332,457.14285714285717,-18C504.7619047619048,-7.166666666666668,523.8095238095239,93.83333333333333,571.4285714285714,88C619.047619047619,82.16666666666667,638.0952380952382,-35.79166666666667,685.7142857142858,-46C733.3333333333334,-56.20833333333333,776.1904761904761,21.291666666666668,800,39" transform="matrix(1,0,0,1,0,3948)"></path><path d="M10,10C31.726190476190478,17.291666666666664,68.75,61.04166666666667,114.28571428571429,45C159.82142857142858,28.958333333333332,180.95238095238096,-65.125,228.57142857142858,-67C276.1904761904762,-68.875,295.2380952380953,25.791666666666668,342.8571428571429,36C390.4761904761905,46.20833333333333,409.5238095238095,-28.833333333333332,457.14285714285717,-18C504.7619047619048,-7.166666666666668,523.8095238095239,93.83333333333333,571.4285714285714,88C619.047619047619,82.16666666666667,638.0952380952382,-35.79166666666667,685.7142857142858,-46C733.3333333333334,-56.20833333333333,776.1904761904761,21.291666666666668,800,39" transform="matrix(1,0,0,1,0,3854)"></path><path d="M10,10C31.726190476190478,17.291666666666664,68.75,61.04166666666667,114.28571428571429,45C159.82142857142858,28.958333333333332,180.95238095238096,-65.125,228.57142857142858,-67C276.1904761904762,-68.875,295.2380952380953,25.791666666666668,342.8571428571429,36C390.4761904761905,46.20833333333333,409.5238095238095,-28.833333333333332,457.14285714285717,-18C504.7619047619048,-7.166666666666668,523.8095238095239,93.83333333333333,571.4285714285714,88C619.047619047619,82.16666666666667,638.0952380952382,-35.79166666666667,685.7142857142858,-46C733.3333333333334,-56.20833333333333,776.1904761904761,21.291666666666668,800,39" transform="matrix(1,0,0,1,0,3760)"></path><path d="M10,10C31.726190476190478,17.291666666666664,68.75,61.04166666666667,114.28571428571429,45C159.82142857142858,28.958333333333332,180.95238095238096,-65.125,228.57142857142858,-67C276.1904761904762,-68.875,295.2380952380953,25.791666666666668,342.8571428571429,36C390.4761904761905,46.20833333333333,409.5238095238095,-28.833333333333332,457.14285714285717,-18C504.7619047619048,-7.166666666666668,523.8095238095239,93.83333333333333,571.4285714285714,88C619.047619047619,82.16666666666667,638.0952380952382,-35.79166666666667,685.7142857142858,-46C733.3333333333334,-56.20833333333333,776.1904761904761,21.291666666666668,800,39" transform="matrix(1,0,0,1,0,3666)"></path><path d="M10,10C31.726190476190478,17.291666666666664,68.75,61.04166666666667,114.28571428571429,45C159.82142857142858,28.958333333333332,180.95238095238096,-65.125,228.57142857142858,-67C276.1904761904762,-68.875,295.2380952380953,25.791666666666668,342.8571428571429,36C390.4761904761905,46.20833333333333,409.5238095238095,-28.833333333333332,457.14285714285717,-18C504.7619047619048,-7.166666666666668,523.8095238095239,93.83333333333333,571.4285714285714,88C619.047619047619,82.16666666666667,638.0952380952382,-35.79166666666667,685.7142857142858,-46C733.3333333333334,-56.20833333333333,776.1904761904761,21.291666666666668,800,39" transform="matrix(1,0,0,1,0,3572)"></path><path d="M10,10C31.726190476190478,17.291666666666664,68.75,61.04166666666667,114.28571428571429,45C159.82142857142858,28.958333333333332,180.95238095238096,-65.125,228.57142857142858,-67C276.1904761904762,-68.875,295.2380952380953,25.791666666666668,342.8571428571429,36C390.4761904761905,46.20833333333333,409.5238095238095,-28.833333333333332,457.14285714285717,-18C504.7619047619048,-7.166666666666668,523.8095238095239,93.83333333333333,571.4285714285714,88C619.047619047619,82.16666666666667,638.0952380952382,-35.79166666666667,685.7142857142858,-46C733.3333333333334,-56.20833333333333,776.1904761904761,21.291666666666668,800,39" transform="matrix(1,0,0,1,0,3478)"></path><path d="M10,10C31.726190476190478,17.291666666666664,68.75,61.04166666666667,114.28571428571429,45C159.82142857142858,28.958333333333332,180.95238095238096,-65.125,228.57142857142858,-67C276.1904761904762,-68.875,295.2380952380953,25.791666666666668,342.8571428571429,36C390.4761904761905,46.20833333333333,409.5238095238095,-28.833333333333332,457.14285714285717,-18C504.7619047619048,-7.166666666666668,523.8095238095239,93.83333333333333,571.4285714285714,88C619.047619047619,82.16666666666667,638.0952380952382,-35.79166666666667,685.7142857142858,-46C733.3333333333334,-56.20833333333333,776.1904761904761,21.291666666666668,800,39" transform="matrix(1,0,0,1,0,3384)"></path><path d="M10,10C31.726190476190478,17.291666666666664,68.75,61.04166666666667,114.28571428571429,45C159.82142857142858,28.958333333333332,180.95238095238096,-65.125,228.57142857142858,-67C276.1904761904762,-68.875,295.2380952380953,25.791666666666668,342.8571428571429,36C390.4761904761905,46.20833333333333,409.5238095238095,-28.833333333333332,457.14285714285717,-18C504.7619047619048,-7.166666666666668,523.8095238095239,93.83333333333333,571.4285714285714,88C619.047619047619,82.16666666666667,638.0952380952382,-35.79166666666667,685.7142857142858,-46C733.3333333333334,-56.20833333333333,776.1904761904761,21.291666666666668,800,39" transform="matrix(1,0,0,1,0,3290)"></path><path d="M10,10C31.726190476190478,17.291666666666664,68.75,61.04166666666667,114.28571428571429,45C159.82142857142858,28.958333333333332,180.95238095238096,-65.125,228.57142857142858,-67C276.1904761904762,-68.875,295.2380952380953,25.791666666666668,342.8571428571429,36C390.4761904761905,46.20833333333333,409.5238095238095,-28.833333333333332,457.14285714285717,-18C504.7619047619048,-7.166666666666668,523.8095238095239,93.83333333333333,571.4285714285714,88C619.047619047619,82.16666666666667,638.0952380952382,-35.79166666666667,685.7142857142858,-46C733.3333333333334,-56.20833333333333,776.1904761904761,21.291666666666668,800,39" transform="matrix(1,0,0,1,0,3196)"></path><path d="M10,10C31.726190476190478,17.291666666666664,68.75,61.04166666666667,114.28571428571429,45C159.82142857142858,28.958333333333332,180.95238095238096,-65.125,228.57142857142858,-67C276.1904761904762,-68.875,295.2380952380953,25.791666666666668,342.8571428571429,36C390.4761904761905,46.20833333333333,409.5238095238095,-28.833333333333332,457.14285714285717,-18C504.7619047619048,-7.166666666666668,523.8095238095239,93.83333333333333,571.4285714285714,88C619.047619047619,82.16666666666667,638.0952380952382,-35.79166666666667,685.7142857142858,-46C733.3333333333334,-56.20833333333333,776.1904761904761,21.291666666666668,800,39" transform="matrix(1,0,0,1,0,3102)"></path><path d="M10,10C31.726190476190478,17.291666666666664,68.75,61.04166666666667,114.28571428571429,45C159.82142857142858,28.958333333333332,180.95238095238096,-65.125,228.57142857142858,-67C276.1904761904762,-68.875,295.2380952380953,25.791666666666668,342.8571428571429,36C390.4761904761905,46.20833333333333,409.5238095238095,-28.833333333333332,457.14285714285717,-18C504.7619047619048,-7.166666666666668,523.8095238095239,93.83333333333333,571.4285714285714,88C619.047619047619,82.16666666666667,638.0952380952382,-35.79166666666667,685.7142857142858,-46C733.3333333333334,-56.20833333333333,776.1904761904761,21.291666666666668,800,39" transform="matrix(1,0,0,1,0,3008)"></path><path d="M10,10C31.726190476190478,17.291666666666664,68.75,61.04166666666667,114.28571428571429,45C159.82142857142858,28.958333333333332,180.95238095238096,-65.125,228.57142857142858,-67C276.1904761904762,-68.875,295.2380952380953,25.791666666666668,342.8571428571429,36C390.4761904761905,46.20833333333333,409.5238095238095,-28.833333333333332,457.14285714285717,-18C504.7619047619048,-7.166666666666668,523.8095238095239,93.83333333333333,571.4285714285714,88C619.047619047619,82.16666666666667,638.0952380952382,-35.79166666666667,685.7142857142858,-46C733.3333333333334,-56.20833333333333,776.1904761904761,21.291666666666668,800,39" transform="matrix(1,0,0,1,0,2914)"></path><path d="M10,10C31.726190476190478,17.291666666666664,68.75,61.04166666666667,114.28571428571429,45C159.82142857142858,28.958333333333332,180.95238095238096,-65.125,228.57142857142858,-67C276.1904761904762,-68.875,295.2380952380953,25.791666666666668,342.8571428571429,36C390.4761904761905,46.20833333333333,409.5238095238095,-28.833333333333332,457.14285714285717,-18C504.7619047619048,-7.166666666666668,523.8095238095239,93.83333333333333,571.4285714285714,88C619.047619047619,82.16666666666667,638.0952380952382,-35.79166666666667,685.7142857142858,-46C733.3333333333334,-56.20833333333333,776.1904761904761,21.291666666666668,800,39" transform="matrix(1,0,0,1,0,2820)"></path><path d="M10,10C31.726190476190478,17.291666666666664,68.75,61.04166666666667,114.28571428571429,45C159.82142857142858,28.958333333333332,180.95238095238096,-65.125,228.57142857142858,-67C276.1904761904762,-68.875,295.2380952380953,25.791666666666668,342.8571428571429,36C390.4761904761905,46.20833333333333,409.5238095238095,-28.833333333333332,457.14285714285717,-18C504.7619047619048,-7.166666666666668,523.8095238095239,93.83333333333333,571.4285714285714,88C619.047619047619,82.16666666666667,638.0952380952382,-35.79166666666667,685.7142857142858,-46C733.3333333333334,-56.20833333333333,776.1904761904761,21.291666666666668,800,39" transform="matrix(1,0,0,1,0,2726)"></path><path d="M10,10C31.726190476190478,17.291666666666664,68.75,61.04166666666667,114.28571428571429,45C159.82142857142858,28.958333333333332,180.95238095238096,-65.125,228.57142857142858,-67C276.1904761904762,-68.875,295.2380952380953,25.791666666666668,342.8571428571429,36C390.4761904761905,46.20833333333333,409.5238095238095,-28.833333333333332,457.14285714285717,-18C504.7619047619048,-7.166666666666668,523.8095238095239,93.83333333333333,571.4285714285714,88C619.047619047619,82.16666666666667,638.0952380952382,-35.79166666666667,685.7142857142858,-46C733.3333333333334,-56.20833333333333,776.1904761904761,21.291666666666668,800,39" transform="matrix(1,0,0,1,0,2632)"></path><path d="M10,10C31.726190476190478,17.291666666666664,68.75,61.04166666666667,114.28571428571429,45C159.82142857142858,28.958333333333332,180.95238095238096,-65.125,228.57142857142858,-67C276.1904761904762,-68.875,295.2380952380953,25.791666666666668,342.8571428571429,36C390.4761904761905,46.20833333333333,409.5238095238095,-28.833333333333332,457.14285714285717,-18C504.7619047619048,-7.166666666666668,523.8095238095239,93.83333333333333,571.4285714285714,88C619.047619047619,82.16666666666667,638.0952380952382,-35.79166666666667,685.7142857142858,-46C733.3333333333334,-56.20833333333333,776.1904761904761,21.291666666666668,800,39" transform="matrix(1,0,0,1,0,2538)"></path><path d="M10,10C31.726190476190478,17.291666666666664,68.75,61.04166666666667,114.28571428571429,45C159.82142857142858,28.958333333333332,180.95238095238096,-65.125,228.57142857142858,-67C276.1904761904762,-68.875,295.2380952380953,25.791666666666668,342.8571428571429,36C390.4761904761905,46.20833333333333,409.5238095238095,-28.833333333333332,457.14285714285717,-18C504.7619047619048,-7.166666666666668,523.8095238095239,93.83333333333333,571.4285714285714,88C619.047619047619,82.16666666666667,638.0952380952382,-35.79166666666667,685.7142857142858,-46C733.3333333333334,-56.20833333333333,776.1904761904761,21.291666666666668,800,39" transform="matrix(1,0,0,1,0,2444)"></path><path d="M10,10C31.726190476190478,17.291666666666664,68.75,61.04166666666667,114.28571428571429,45C159.82142857142858,28.958333333333332,180.95238095238096,-65.125,228.57142857142858,-67C276.1904761904762,-68.875,295.2380952380953,25.791666666666668,342.8571428571429,36C390.4761904761905,46.20833333333333,409.5238095238095,-28.833333333333332,457.14285714285717,-18C504.7619047619048,-7.166666666666668,523.8095238095239,93.83333333333333,571.4285714285714,88C619.047619047619,82.16666666666667,638.0952380952382,-35.79166666666667,685.7142857142858,-46C733.3333333333334,-56.20833333333333,776.1904761904761,21.291666666666668,800,39" transform="matrix(1,0,0,1,0,2350)"></path><path d="M10,10C31.726190476190478,17.291666666666664,68.75,61.04166666666667,114.28571428571429,45C159.82142857142858,28.958333333333332,180.95238095238096,-65.125,228.57142857142858,-67C276.1904761904762,-68.875,295.2380952380953,25.791666666666668,342.8571428571429,36C390.4761904761905,46.20833333333333,409.5238095238095,-28.833333333333332,457.14285714285717,-18C504.7619047619048,-7.166666666666668,523.8095238095239,93.83333333333333,571.4285714285714,88C619.047619047619,82.16666666666667,638.0952380952382,-35.79166666666667,685.7142857142858,-46C733.3333333333334,-56.20833333333333,776.1904761904761,21.291666666666668,800,39" transform="matrix(1,0,0,1,0,2256)"></path><path d="M10,10C31.726190476190478,17.291666666666664,68.75,61.04166666666667,114.28571428571429,45C159.82142857142858,28.958333333333332,180.95238095238096,-65.125,228.57142857142858,-67C276.1904761904762,-68.875,295.2380952380953,25.791666666666668,342.8571428571429,36C390.4761904761905,46.20833333333333,409.5238095238095,-28.833333333333332,457.14285714285717,-18C504.7619047619048,-7.166666666666668,523.8095238095239,93.83333333333333,571.4285714285714,88C619.047619047619,82.16666666666667,638.0952380952382,-35.79166666666667,685.7142857142858,-46C733.3333333333334,-56.20833333333333,776.1904761904761,21.291666666666668,800,39" transform="matrix(1,0,0,1,0,2162)"></path><path d="M10,10C31.726190476190478,17.291666666666664,68.75,61.04166666666667,114.28571428571429,45C159.82142857142858,28.958333333333332,180.95238095238096,-65.125,228.57142857142858,-67C276.1904761904762,-68.875,295.2380952380953,25.791666666666668,342.8571428571429,36C390.4761904761905,46.20833333333333,409.5238095238095,-28.833333333333332,457.14285714285717,-18C504.7619047619048,-7.166666666666668,523.8095238095239,93.83333333333333,571.4285714285714,88C619.047619047619,82.16666666666667,638.0952380952382,-35.79166666666667,685.7142857142858,-46C733.3333333333334,-56.20833333333333,776.1904761904761,21.291666666666668,800,39" transform="matrix(1,0,0,1,0,2068)"></path><path d="M10,10C31.726190476190478,17.291666666666664,68.75,61.04166666666667,114.28571428571429,45C159.82142857142858,28.958333333333332,180.95238095238096,-65.125,228.57142857142858,-67C276.1904761904762,-68.875,295.2380952380953,25.791666666666668,342.8571428571429,36C390.4761904761905,46.20833333333333,409.5238095238095,-28.833333333333332,457.14285714285717,-18C504.7619047619048,-7.166666666666668,523.8095238095239,93.83333333333333,571.4285714285714,88C619.047619047619,82.16666666666667,638.0952380952382,-35.79166666666667,685.7142857142858,-46C733.3333333333334,-56.20833333333333,776.1904761904761,21.291666666666668,800,39" transform="matrix(1,0,0,1,0,1974)"></path><path d="M10,10C31.726190476190478,17.291666666666664,68.75,61.04166666666667,114.28571428571429,45C159.82142857142858,28.958333333333332,180.95238095238096,-65.125,228.57142857142858,-67C276.1904761904762,-68.875,295.2380952380953,25.791666666666668,342.8571428571429,36C390.4761904761905,46.20833333333333,409.5238095238095,-28.833333333333332,457.14285714285717,-18C504.7619047619048,-7.166666666666668,523.8095238095239,93.83333333333333,571.4285714285714,88C619.047619047619,82.16666666666667,638.0952380952382,-35.79166666666667,685.7142857142858,-46C733.3333333333334,-56.20833333333333,776.1904761904761,21.291666666666668,800,39" transform="matrix(1,0,0,1,0,1880)"></path><path d="M10,10C31.726190476190478,17.291666666666664,68.75,61.04166666666667,114.28571428571429,45C159.82142857142858,28.958333333333332,180.95238095238096,-65.125,228.57142857142858,-67C276.1904761904762,-68.875,295.2380952380953,25.791666666666668,342.8571428571429,36C390.4761904761905,46.20833333333333,409.5238095238095,-28.833333333333332,457.14285714285717,-18C504.7619047619048,-7.166666666666668,523.8095238095239,93.83333333333333,571.4285714285714,88C619.047619047619,82.16666666666667,638.0952380952382,-35.79166666666667,685.7142857142858,-46C733.3333333333334,-56.20833333333333,776.1904761904761,21.291666666666668,800,39" transform="matrix(1,0,0,1,0,1786)"></path><path d="M10,10C31.726190476190478,17.291666666666664,68.75,61.04166666666667,114.28571428571429,45C159.82142857142858,28.958333333333332,180.95238095238096,-65.125,228.57142857142858,-67C276.1904761904762,-68.875,295.2380952380953,25.791666666666668,342.8571428571429,36C390.4761904761905,46.20833333333333,409.5238095238095,-28.833333333333332,457.14285714285717,-18C504.7619047619048,-7.166666666666668,523.8095238095239,93.83333333333333,571.4285714285714,88C619.047619047619,82.16666666666667,638.0952380952382,-35.79166666666667,685.7142857142858,-46C733.3333333333334,-56.20833333333333,776.1904761904761,21.291666666666668,800,39" transform="matrix(1,0,0,1,0,1692)"></path><path d="M10,10C31.726190476190478,17.291666666666664,68.75,61.04166666666667,114.28571428571429,45C159.82142857142858,28.958333333333332,180.95238095238096,-65.125,228.57142857142858,-67C276.1904761904762,-68.875,295.2380952380953,25.791666666666668,342.8571428571429,36C390.4761904761905,46.20833333333333,409.5238095238095,-28.833333333333332,457.14285714285717,-18C504.7619047619048,-7.166666666666668,523.8095238095239,93.83333333333333,571.4285714285714,88C619.047619047619,82.16666666666667,638.0952380952382,-35.79166666666667,685.7142857142858,-46C733.3333333333334,-56.20833333333333,776.1904761904761,21.291666666666668,800,39" transform="matrix(1,0,0,1,0,1598)"></path><path d="M10,10C31.726190476190478,17.291666666666664,68.75,61.04166666666667,114.28571428571429,45C159.82142857142858,28.958333333333332,180.95238095238096,-65.125,228.57142857142858,-67C276.1904761904762,-68.875,295.2380952380953,25.791666666666668,342.8571428571429,36C390.4761904761905,46.20833333333333,409.5238095238095,-28.833333333333332,457.14285714285717,-18C504.7619047619048,-7.166666666666668,523.8095238095239,93.83333333333333,571.4285714285714,88C619.047619047619,82.16666666666667,638.0952380952382,-35.79166666666667,685.7142857142858,-46C733.3333333333334,-56.20833333333333,776.1904761904761,21.291666666666668,800,39" transform="matrix(1,0,0,1,0,1504)"></path><path d="M10,10C31.726190476190478,17.291666666666664,68.75,61.04166666666667,114.28571428571429,45C159.82142857142858,28.958333333333332,180.95238095238096,-65.125,228.57142857142858,-67C276.1904761904762,-68.875,295.2380952380953,25.791666666666668,342.8571428571429,36C390.4761904761905,46.20833333333333,409.5238095238095,-28.833333333333332,457.14285714285717,-18C504.7619047619048,-7.166666666666668,523.8095238095239,93.83333333333333,571.4285714285714,88C619.047619047619,82.16666666666667,638.0952380952382,-35.79166666666667,685.7142857142858,-46C733.3333333333334,-56.20833333333333,776.1904761904761,21.291666666666668,800,39" transform="matrix(1,0,0,1,0,1410)"></path><path d="M10,10C31.726190476190478,17.291666666666664,68.75,61.04166666666667,114.28571428571429,45C159.82142857142858,28.958333333333332,180.95238095238096,-65.125,228.57142857142858,-67C276.1904761904762,-68.875,295.2380952380953,25.791666666666668,342.8571428571429,36C390.4761904761905,46.20833333333333,409.5238095238095,-28.833333333333332,457.14285714285717,-18C504.7619047619048,-7.166666666666668,523.8095238095239,93.83333333333333,571.4285714285714,88C619.047619047619,82.16666666666667,638.0952380952382,-35.79166666666667,685.7142857142858,-46C733.3333333333334,-56.20833333333333,776.1904761904761,21.291666666666668,800,39" transform="matrix(1,0,0,1,0,1316)"></path><path d="M10,10C31.726190476190478,17.291666666666664,68.75,61.04166666666667,114.28571428571429,45C159.82142857142858,28.958333333333332,180.95238095238096,-65.125,228.57142857142858,-67C276.1904761904762,-68.875,295.2380952380953,25.791666666666668,342.8571428571429,36C390.4761904761905,46.20833333333333,409.5238095238095,-28.833333333333332,457.14285714285717,-18C504.7619047619048,-7.166666666666668,523.8095238095239,93.83333333333333,571.4285714285714,88C619.047619047619,82.16666666666667,638.0952380952382,-35.79166666666667,685.7142857142858,-46C733.3333333333334,-56.20833333333333,776.1904761904761,21.291666666666668,800,39" transform="matrix(1,0,0,1,0,1222)"></path><path d="M10,10C31.726190476190478,17.291666666666664,68.75,61.04166666666667,114.28571428571429,45C159.82142857142858,28.958333333333332,180.95238095238096,-65.125,228.57142857142858,-67C276.1904761904762,-68.875,295.2380952380953,25.791666666666668,342.8571428571429,36C390.4761904761905,46.20833333333333,409.5238095238095,-28.833333333333332,457.14285714285717,-18C504.7619047619048,-7.166666666666668,523.8095238095239,93.83333333333333,571.4285714285714,88C619.047619047619,82.16666666666667,638.0952380952382,-35.79166666666667,685.7142857142858,-46C733.3333333333334,-56.20833333333333,776.1904761904761,21.291666666666668,800,39" transform="matrix(1,0,0,1,0,1128)"></path><path d="M10,10C31.726190476190478,17.291666666666664,68.75,61.04166666666667,114.28571428571429,45C159.82142857142858,28.958333333333332,180.95238095238096,-65.125,228.57142857142858,-67C276.1904761904762,-68.875,295.2380952380953,25.791666666666668,342.8571428571429,36C390.4761904761905,46.20833333333333,409.5238095238095,-28.833333333333332,457.14285714285717,-18C504.7619047619048,-7.166666666666668,523.8095238095239,93.83333333333333,571.4285714285714,88C619.047619047619,82.16666666666667,638.0952380952382,-35.79166666666667,685.7142857142858,-46C733.3333333333334,-56.20833333333333,776.1904761904761,21.291666666666668,800,39" transform="matrix(1,0,0,1,0,1034)"></path><path d="M10,10C31.726190476190478,17.291666666666664,68.75,61.04166666666667,114.28571428571429,45C159.82142857142858,28.958333333333332,180.95238095238096,-65.125,228.57142857142858,-67C276.1904761904762,-68.875,295.2380952380953,25.791666666666668,342.8571428571429,36C390.4761904761905,46.20833333333333,409.5238095238095,-28.833333333333332,457.14285714285717,-18C504.7619047619048,-7.166666666666668,523.8095238095239,93.83333333333333,571.4285714285714,88C619.047619047619,82.16666666666667,638.0952380952382,-35.79166666666667,685.7142857142858,-46C733.3333333333334,-56.20833333333333,776.1904761904761,21.291666666666668,800,39" transform="matrix(1,0,0,1,0,940)"></path><path d="M10,10C31.726190476190478,17.291666666666664,68.75,61.04166666666667,114.28571428571429,45C159.82142857142858,28.958333333333332,180.95238095238096,-65.125,228.57142857142858,-67C276.1904761904762,-68.875,295.2380952380953,25.791666666666668,342.8571428571429,36C390.4761904761905,46.20833333333333,409.5238095238095,-28.833333333333332,457.14285714285717,-18C504.7619047619048,-7.166666666666668,523.8095238095239,93.83333333333333,571.4285714285714,88C619.047619047619,82.16666666666667,638.0952380952382,-35.79166666666667,685.7142857142858,-46C733.3333333333334,-56.20833333333333,776.1904761904761,21.291666666666668,800,39" transform="matrix(1,0,0,1,0,846)"></path><path d="M10,10C31.726190476190478,17.291666666666664,68.75,61.04166666666667,114.28571428571429,45C159.82142857142858,28.958333333333332,180.95238095238096,-65.125,228.57142857142858,-67C276.1904761904762,-68.875,295.2380952380953,25.791666666666668,342.8571428571429,36C390.4761904761905,46.20833333333333,409.5238095238095,-28.833333333333332,457.14285714285717,-18C504.7619047619048,-7.166666666666668,523.8095238095239,93.83333333333333,571.4285714285714,88C619.047619047619,82.16666666666667,638.0952380952382,-35.79166666666667,685.7142857142858,-46C733.3333333333334,-56.20833333333333,776.1904761904761,21.291666666666668,800,39" transform="matrix(1,0,0,1,0,752)"></path><path d="M10,10C31.726190476190478,17.291666666666664,68.75,61.04166666666667,114.28571428571429,45C159.82142857142858,28.958333333333332,180.95238095238096,-65.125,228.57142857142858,-67C276.1904761904762,-68.875,295.2380952380953,25.791666666666668,342.8571428571429,36C390.4761904761905,46.20833333333333,409.5238095238095,-28.833333333333332,457.14285714285717,-18C504.7619047619048,-7.166666666666668,523.8095238095239,93.83333333333333,571.4285714285714,88C619.047619047619,82.16666666666667,638.0952380952382,-35.79166666666667,685.7142857142858,-46C733.3333333333334,-56.20833333333333,776.1904761904761,21.291666666666668,800,39" transform="matrix(1,0,0,1,0,658)"></path><path d="M10,10C31.726190476190478,17.291666666666664,68.75,61.04166666666667,114.28571428571429,45C159.82142857142858,28.958333333333332,180.95238095238096,-65.125,228.57142857142858,-67C276.1904761904762,-68.875,295.2380952380953,25.791666666666668,342.8571428571429,36C390.4761904761905,46.20833333333333,409.5238095238095,-28.833333333333332,457.14285714285717,-18C504.7619047619048,-7.166666666666668,523.8095238095239,93.83333333333333,571.4285714285714,88C619.047619047619,82.16666666666667,638.0952380952382,-35.79166666666667,685.7142857142858,-46C733.3333333333334,-56.20833333333333,776.1904761904761,21.291666666666668,800,39" transform="matrix(1,0,0,1,0,564)"></path><path d="M10,10C31.726190476190478,17.291666666666664,68.75,61.04166666666667,114.28571428571429,45C159.82142857142858,28.958333333333332,180.95238095238096,-65.125,228.57142857142858,-67C276.1904761904762,-68.875,295.2380952380953,25.791666666666668,342.8571428571429,36C390.4761904761905,46.20833333333333,409.5238095238095,-28.833333333333332,457.14285714285717,-18C504.7619047619048,-7.166666666666668,523.8095238095239,93.83333333333333,571.4285714285714,88C619.047619047619,82.16666666666667,638.0952380952382,-35.79166666666667,685.7142857142858,-46C733.3333333333334,-56.20833333333333,776.1904761904761,21.291666666666668,800,39" transform="matrix(1,0,0,1,0,470)"></path><path d="M10,10C31.726190476190478,17.291666666666664,68.75,61.04166666666667,114.28571428571429,45C159.82142857142858,28.958333333333332,180.95238095238096,-65.125,228.57142857142858,-67C276.1904761904762,-68.875,295.2380952380953,25.791666666666668,342.8571428571429,36C390.4761904761905,46.20833333333333,409.5238095238095,-28.833333333333332,457.14285714285717,-18C504.7619047619048,-7.166666666666668,523.8095238095239,93.83333333333333,571.4285714285714,88C619.047619047619,82.16666666666667,638.0952380952382,-35.79166666666667,685.7142857142858,-46C733.3333333333334,-56.20833333333333,776.1904761904761,21.291666666666668,800,39" transform="matrix(1,0,0,1,0,376)"></path><path d="M10,10C31.726190476190478,17.291666666666664,68.75,61.04166666666667,114.28571428571429,45C159.82142857142858,28.958333333333332,180.95238095238096,-65.125,228.57142857142858,-67C276.1904761904762,-68.875,295.2380952380953,25.791666666666668,342.8571428571429,36C390.4761904761905,46.20833333333333,409.5238095238095,-28.833333333333332,457.14285714285717,-18C504.7619047619048,-7.166666666666668,523.8095238095239,93.83333333333333,571.4285714285714,88C619.047619047619,82.16666666666667,638.0952380952382,-35.79166666666667,685.7142857142858,-46C733.3333333333334,-56.20833333333333,776.1904761904761,21.291666666666668,800,39" transform="matrix(1,0,0,1,0,282)"></path><path d="M10,10C31.726190476190478,17.291666666666664,68.75,61.04166666666667,114.28571428571429,45C159.82142857142858,28.958333333333332,180.95238095238096,-65.125,228.57142857142858,-67C276.1904761904762,-68.875,295.2380952380953,25.791666666666668,342.8571428571429,36C390.4761904761905,46.20833333333333,409.5238095238095,-28.833333333333332,457.14285714285717,-18C504.7619047619048,-7.166666666666668,523.8095238095239,93.83333333333333,571.4285714285714,88C619.047619047619,82.16666666666667,638.0952380952382,-35.79166666666667,685.7142857142858,-46C733.3333333333334,-56.20833333333333,776.1904761904761,21.291666666666668,800,39" transform="matrix(1,0,0,1,0,188)"></path><path d="M10,10C31.726190476190478,17.291666666666664,68.75,61.04166666666667,114.28571428571429,45C159.82142857142858,28.958333333333332,180.95238095238096,-65.125,228.57142857142858,-67C276.1904761904762,-68.875,295.2380952380953,25.791666666666668,342.8571428571429,36C390.4761904761905,46.20833333333333,409.5238095238095,-28.833333333333332,457.14285714285717,-18C504.7619047619048,-7.166666666666668,523.8095238095239,93.83333333333333,571.4285714285714,88C619.047619047619,82.16666666666667,638.0952380952382,-35.79166666666667,685.7142857142858,-46C733.3333333333334,-56.20833333333333,776.1904761904761,21.291666666666668,800,39" transform="matrix(1,0,0,1,0,94)"></path></g></svg>